<?xml version="1.0" standalone="no"?>
<!DOCTYPE svg PUBLIC "-//W3C//DTD SVG 20010904//EN"
 "http://www.w3.org/TR/2001/REC-SVG-20010904/DTD/svg10.dtd">
<svg version="1.0" xmlns="http://www.w3.org/2000/svg"
 width="640.000000pt" height="1385.000000pt" viewBox="0 0 640.000000 1385.000000"
 preserveAspectRatio="xMidYMid meet">

<g transform="translate(0.000000,1385.000000) scale(0.100000,-0.100000)"
fill="#000000" stroke="none">
<path d="M3811 9524 c0 -11 3 -14 6 -6 3 7 2 16 -1 19 -3 4 -6 -2 -5 -13z"/>
<path d="M3860 9505 c0 -3 14 -35 30 -72 32 -70 34 -77 23 -70 -5 3 -8 -6 -8
-19 0 -22 1 -23 12 -7 14 18 22 15 27 -13 9 -44 28 -76 68 -118 24 -24 50 -54
59 -66 8 -13 23 -23 31 -23 9 0 14 -5 12 -12 -3 -6 9 -24 26 -40 16 -16 30
-33 30 -37 0 -13 -32 7 -69 41 -28 27 -31 28 -25 8 4 -12 21 -40 39 -62 18
-22 40 -55 49 -73 9 -18 21 -30 26 -27 6 4 7 -1 3 -11 -5 -13 -3 -16 10 -11
11 4 17 1 17 -8 0 -8 4 -15 10 -15 5 0 12 -11 16 -25 3 -14 10 -25 15 -25 21
0 77 -63 89 -99 7 -23 18 -41 24 -41 15 -1 56 -36 56 -48 0 -6 14 -21 30 -34
17 -13 51 -42 76 -65 26 -24 51 -43 56 -43 5 0 4 -10 -3 -21 -10 -20 -9 -21 9
-17 12 3 29 0 39 -8 17 -13 17 -13 -1 -14 -13 0 -16 -5 -11 -17 4 -10 10 -26
12 -36 4 -14 8 -15 19 -6 11 9 14 8 14 -4 0 -9 8 -21 18 -27 15 -9 14 -10 -8
-8 -14 1 -30 -1 -37 -5 -14 -9 -33 21 -25 42 3 9 0 11 -7 7 -13 -8 -41 10 -41
26 0 6 7 8 15 4 8 -3 15 0 15 5 0 6 -9 9 -20 6 -11 -3 -20 -1 -20 5 0 5 -4 6
-10 3 -5 -3 -10 1 -10 9 0 9 -4 16 -10 16 -5 0 -6 8 -3 18 6 15 5 15 -10 3
-15 -12 -17 -11 -17 3 0 9 -7 16 -16 16 -8 0 -13 4 -10 9 3 5 -7 19 -23 32
-16 13 -29 28 -30 33 0 6 -8 11 -16 12 -9 1 -32 19 -51 38 -20 20 -40 34 -45
31 -5 -4 -9 -1 -9 4 0 6 -5 11 -10 11 -7 0 -7 -8 1 -22 6 -13 -18 5 -53 40
-47 46 -85 72 -143 98 -44 20 -70 33 -57 31 13 -3 22 0 22 6 0 16 -52 65 -82
76 -23 10 -23 10 -1 10 12 1 25 6 28 11 8 13 35 13 35 1 0 -5 -8 -12 -17 -14
-16 -4 -16 -5 -1 -6 30 -2 31 20 2 48 -28 28 -33 42 -36 99 -1 17 -6 32 -11
32 -4 0 -5 5 -2 10 3 6 1 10 -5 10 -6 0 -8 5 -5 10 3 6 2 10 -3 10 -6 0 -8 8
-5 19 3 10 0 22 -6 25 -6 4 -11 14 -11 22 0 8 -9 24 -20 36 -10 12 -17 25 -14
30 3 4 0 8 -5 8 -14 0 -43 69 -35 84 4 6 -16 -11 -45 -39 l-52 -50 7 -52 c6
-51 6 -52 -22 -55 -37 -4 -42 -30 -9 -48 34 -18 93 -101 112 -157 8 -24 25
-48 37 -55 11 -6 35 -22 51 -36 17 -14 73 -45 125 -69 133 -62 240 -169 364
-366 29 -48 57 -83 61 -79 5 4 5 2 1 -5 -9 -16 48 -128 81 -161 14 -14 27 -33
28 -41 5 -32 18 -61 27 -61 5 0 6 -4 3 -10 -3 -5 -22 -10 -41 -10 -28 0 -44 9
-80 44 -52 52 -104 79 -194 102 -69 18 -189 15 -213 -4 -7 -6 -43 -22 -80 -35
-56 -20 -75 -23 -114 -16 -25 5 -47 8 -49 7 -1 -2 1 -23 6 -48 4 -25 11 -90
15 -145 6 -88 13 -117 62 -245 31 -80 67 -183 80 -230 28 -97 66 -184 111
-254 l32 -50 12 35 c15 41 16 34 -22 99 -17 29 -51 99 -75 156 -25 57 -56 126
-70 154 -22 43 -26 69 -32 173 -10 201 -8 232 15 235 9 1 35 3 57 5 22 2 46 6
53 11 7 4 15 1 18 -8 11 -29 27 -17 21 14 -6 28 -5 30 25 30 22 0 40 -10 64
-35 35 -37 61 -45 70 -20 4 8 10 12 15 9 5 -3 6 -10 3 -16 -4 -6 -2 -8 4 -5 5
4 8 17 5 28 -5 18 -3 20 16 14 15 -4 21 -3 19 7 -2 8 5 12 17 10 53 -8 76 -8
81 0 3 4 10 6 15 3 5 -4 9 0 9 9 0 8 -5 17 -10 19 -6 3 -6 5 -1 4 5 -1 30 -22
56 -45 46 -43 87 -117 87 -159 0 -13 5 -20 13 -17 7 3 16 1 20 -5 3 -6 19 -11
36 -11 16 0 29 -4 29 -10 0 -9 61 -24 92 -22 9 0 19 -6 22 -14 3 -7 12 -11 20
-8 8 3 17 0 21 -6 4 -7 10 -8 14 -4 11 16 79 46 89 40 5 -3 12 1 16 9 6 17 32
20 41 5 9 -15 -15 -42 -32 -36 -9 4 -13 -4 -13 -24 0 -17 4 -30 9 -30 5 0 11
-9 14 -20 6 -25 -8 -26 -23 -2 -9 15 -10 14 -5 -5 4 -16 2 -23 -8 -23 -7 0
-14 -7 -14 -15 0 -8 6 -15 14 -15 7 0 13 4 13 9 0 5 18 11 39 15 21 3 41 12
44 20 4 9 14 12 25 9 26 -6 37 13 20 35 -11 15 -11 15 3 5 9 -7 20 -9 24 -5 5
4 5 1 1 -5 -4 -8 -2 -13 6 -13 9 0 9 -3 -2 -10 -20 -13 -4 -13 21 0 10 6 19
16 19 22 0 7 -4 7 -13 -1 -11 -8 -17 -5 -28 17 -8 15 -18 30 -24 34 -6 5 -5 8
4 8 9 0 11 8 7 28 -4 15 -8 46 -10 69 -2 23 -15 63 -30 89 -29 51 -31 58 -16
49 6 -3 0 10 -11 30 -30 50 -18 54 14 6 16 -24 24 -47 21 -58 -5 -15 -4 -16 5
-3 9 13 11 13 12 0 1 -8 1 -18 0 -22 0 -4 11 -19 26 -34 20 -20 23 -28 13 -34
-12 -7 -12 -13 -1 -37 l13 -28 9 23 c10 27 -8 68 -85 187 -84 129 -195 254
-353 398 -141 129 -217 208 -293 307 -40 51 -180 191 -180 179 0 -4 5 -11 10
-14 6 -3 10 -15 10 -26 0 -11 4 -18 9 -15 5 3 15 -2 22 -12 12 -15 12 -16 -2
-5 -9 7 -18 10 -22 7 -3 -3 -13 10 -22 30 -10 20 -21 34 -25 31 -5 -3 -12 0
-16 6 -4 8 -3 9 4 5 16 -10 15 10 -2 42 -20 40 -34 74 -39 97 -4 18 -5 18 -6
-2 0 -13 8 -45 18 -73 11 -27 16 -50 11 -50 -8 0 -40 61 -40 77 0 5 -16 39
-35 76 -19 37 -31 67 -25 67 5 0 14 -8 20 -17 9 -14 12 -15 17 -5 4 10 11 8
29 -9 13 -12 24 -18 24 -13 0 16 -24 45 -40 48 -135 25 -221 98 -270 230 -18
47 -40 81 -40 61z m140 -249 c0 -6 -7 -2 -15 8 -8 11 -15 25 -15 30 0 6 7 2
15 -8 8 -11 15 -25 15 -30z m-173 -13 c-4 -3 -2 -12 4 -20 6 -7 8 -13 3 -13
-5 0 -9 -12 -10 -27 0 -16 -2 -37 -5 -48 -3 -15 5 -24 30 -37 53 -26 61 -39
24 -36 -18 1 -30 4 -27 7 2 2 -8 17 -23 33 -15 15 -23 28 -17 28 5 0 4 4 -3 8
-10 6 -17 53 -14 89 1 6 9 14 19 16 9 3 19 5 21 6 2 0 1 -2 -2 -6z m59 -30
c-3 -16 -8 -45 -12 -66 -7 -43 -17 -53 -33 -33 -20 24 13 126 41 126 5 0 7
-12 4 -27z m214 3 c0 -3 -4 -8 -10 -11 -5 -3 -10 -1 -10 4 0 6 5 11 10 11 6 0
10 -2 10 -4z m-310 -96 c0 -10 -41 -21 -52 -14 -5 3 -6 9 -3 13 6 11 55 11 55
1z m154 -197 c6 -14 -13 -17 -29 -5 -5 4 -11 15 -13 25 -3 16 0 16 17 5 11 -7
23 -18 25 -25z m313 5 c-2 -7 2 -21 10 -30 8 -9 13 -22 11 -29 -2 -7 -14 3
-25 21 -21 34 -22 50 -2 50 6 0 9 -6 6 -12z m-322 -48 c3 -5 2 -10 -4 -10 -5
0 -13 5 -16 10 -3 6 -2 10 4 10 5 0 13 -4 16 -10z m45 -11 c0 -5 5 -7 10 -4 6
3 10 2 10 -3 0 -6 -11 -9 -24 -8 -14 0 -22 6 -19 14 6 15 23 16 23 1z m530
-439 c0 -5 -4 -10 -10 -10 -5 0 -10 5 -10 10 0 6 5 10 10 10 6 0 10 -4 10 -10z
m216 -137 c-10 -10 -19 5 -10 18 6 11 8 11 12 0 2 -7 1 -15 -2 -18z m44 -43
c0 -5 -5 -10 -11 -10 -5 0 -7 5 -4 10 3 6 8 10 11 10 2 0 4 -4 4 -10z m-46
-45 c-7 -16 -24 -21 -24 -6 0 8 7 13 27 20 1 1 0 -6 -3 -14z m-74 -49 c0 -3
-4 -8 -10 -11 -5 -3 -10 -1 -10 4 0 6 5 11 10 11 6 0 10 -2 10 -4z m320 -136
c0 -5 -4 -10 -10 -10 -5 0 -10 5 -10 10 0 6 5 10 10 10 6 0 10 -4 10 -10z
m-283 -136 c-3 -3 -12 -4 -19 -1 -8 3 -5 6 6 6 11 1 17 -2 13 -5z m368 -94 c3
-5 1 -10 -4 -10 -6 0 -11 5 -11 10 0 6 2 10 4 10 3 0 8 -4 11 -10z"/>
<path d="M3821 9464 c0 -11 3 -14 6 -6 3 7 2 16 -1 19 -3 4 -6 -2 -5 -13z"/>
<path d="M3117 9414 c-3 -4 -23 -9 -43 -11 -20 -2 -45 -8 -55 -13 -10 -6 -28
-10 -39 -10 -21 0 -120 -92 -120 -111 0 -5 -17 -26 -39 -48 -23 -23 -45 -59
-55 -89 -10 -28 -23 -55 -30 -61 -7 -6 -11 -22 -8 -36 2 -14 -2 -35 -11 -48
-18 -27 -11 -84 24 -192 12 -40 21 -92 20 -120 -2 -58 14 -95 49 -112 35 -17
45 -5 19 23 -12 13 -18 24 -13 24 15 -1 127 -110 113 -110 -8 0 -27 14 -43 32
-25 29 -26 30 -12 6 9 -16 23 -39 32 -53 25 -38 32 -260 11 -302 l-17 -31 71
-13 c56 -10 97 -10 197 -1 70 7 159 12 197 12 39 0 102 9 140 19 38 11 71 18
73 16 9 -9 -122 -47 -179 -52 l-67 -6 2 -39 1 -40 70 7 c136 14 232 53 294
119 l23 25 -41 12 c-30 9 -44 9 -54 0 -21 -17 -74 -2 -93 26 -9 14 -11 22 -5
19 6 -4 11 -4 11 1 -2 32 -38 274 -39 260 -1 -10 -5 -16 -10 -12 -5 3 -16 -4
-24 -16 -16 -22 -31 -12 -16 11 14 23 11 39 -10 57 -11 9 -18 20 -15 25 13 21
-16 5 -30 -17 -9 -14 -21 -23 -25 -21 -4 3 -6 -6 -3 -19 3 -17 -1 -27 -12 -31
-9 -3 -13 -10 -10 -15 3 -5 0 -9 -6 -9 -6 0 -18 -7 -26 -15 -17 -17 -61 -20
-66 -5 -2 6 -17 6 -42 -1 -22 -6 -52 -9 -68 -7 -15 3 -28 1 -28 -3 0 -4 -11
-2 -25 4 -30 14 -32 33 -5 40 11 3 20 10 20 17 0 6 -5 8 -12 4 -15 -9 -85 -15
-71 -6 5 4 13 14 16 22 4 11 6 10 6 -4 1 -15 4 -16 15 -7 11 9 15 9 19 -1 4
-8 6 -7 6 5 1 21 31 23 31 1 0 -17 28 -49 36 -42 2 3 -2 11 -10 17 -17 15 -10
41 11 41 8 0 21 -7 30 -15 14 -14 13 -15 -12 -9 -20 5 -26 4 -21 -5 9 -14 43
-14 52 0 3 6 1 16 -5 22 -6 6 -11 14 -11 18 0 13 29 18 36 7 4 -7 3 -8 -5 -4
-8 6 -10 0 -5 -18 4 -16 1 -32 -6 -41 -8 -10 -9 -15 -2 -15 6 0 14 5 17 10 4
6 10 8 15 5 13 -8 61 6 55 16 -3 4 -16 4 -30 -1 -17 -7 -25 -5 -29 5 -7 18 7
27 29 19 13 -5 15 -1 11 21 -4 22 -3 25 9 15 20 -16 49 12 40 39 -5 17 -2 19
20 15 21 -4 25 -1 25 21 0 14 4 25 9 25 5 0 7 -10 4 -22 -4 -23 -4 -23 12 -3
9 11 20 19 25 18 5 -2 7 4 4 12 -4 8 -1 15 5 15 6 0 8 7 5 15 -4 10 0 15 12
16 11 0 14 3 7 5 -8 4 -7 11 4 24 9 10 20 17 25 14 4 -3 8 3 8 14 0 10 3 22 8
26 4 4 7 11 8 14 0 4 6 20 12 35 7 16 12 34 12 42 0 7 4 15 9 17 5 2 5 30 0
67 -10 67 -67 196 -114 254 -45 56 -149 157 -161 157 -7 0 -14 6 -17 14 -4 9
-17 12 -41 10 -19 -3 -37 0 -41 6 -7 11 -28 13 -38 4z m-340 -746 c-3 -7 -5
-2 -5 12 0 14 2 19 5 13 2 -7 2 -19 0 -25z m469 -106 c1 -7 0 -8 -3 -2 -2 5
-9 8 -14 4 -5 -3 -9 0 -9 6 0 15 23 7 26 -8z m-206 -121 c0 -5 -9 -7 -20 -4
-11 3 -20 7 -20 9 0 2 9 4 20 4 11 0 20 -4 20 -9z m324 -20 c3 -5 -2 -12 -11
-15 -15 -6 -15 -8 -3 -16 11 -7 6 -10 -18 -10 -18 0 -31 -4 -27 -9 5 -10 -83
-24 -145 -24 -78 1 -95 3 -82 11 7 5 10 16 7 24 -9 22 14 27 110 27 44 -1 87
2 95 4 14 5 44 13 62 16 4 0 9 -3 12 -8z m-184 -131 c0 -5 -12 -10 -27 -9 -25
0 -26 1 -8 9 27 12 35 12 35 0z m65 -7 c-11 -3 -26 -10 -32 -15 -10 -8 -13 -6
-13 6 0 12 9 16 33 15 21 -1 25 -3 12 -6z m200 -49 c23 -21 25 -28 14 -35 -8
-5 -23 -9 -34 -9 -11 0 -29 -7 -39 -15 -26 -20 -303 -12 -324 9 -25 25 -5 33
105 40 59 4 133 13 163 21 77 19 84 18 115 -11z"/>
<path d="M4211 9130 c0 -8 6 -28 14 -45 17 -39 18 -21 0 25 -7 19 -14 28 -14
20z"/>
<path d="M4241 9045 c0 -5 6 -21 14 -35 8 -14 14 -20 14 -15 0 6 -6 21 -14 35
-8 14 -14 21 -14 15z"/>
<path d="M3521 8802 c-27 -53 -30 -135 -7 -161 14 -15 17 -30 13 -56 -3 -19
-4 -35 -2 -35 5 0 45 76 45 85 0 3 -10 5 -22 6 -22 1 -22 1 2 8 15 4 28 3 32
-3 14 -20 8 18 -7 44 -8 14 -14 43 -13 65 l0 40 8 -35 c10 -47 29 -94 36 -87
3 3 -2 19 -10 36 -9 16 -16 47 -16 69 0 35 -14 62 -32 62 -4 0 -16 -17 -27
-38z m6 -84 c-3 -8 -6 -5 -6 6 -1 11 2 17 5 13 3 -3 4 -12 1 -19z"/>
<path d="M3465 8643 c-4 -13 -11 -20 -16 -17 -5 3 -10 2 -10 -3 -7 -43 -4 -52
20 -63 20 -9 23 -9 15 0 -8 8 -9 22 -2 47 10 38 4 72 -7 36z"/>
<path d="M3336 8537 c3 -10 9 -15 12 -12 3 3 0 11 -7 18 -10 9 -11 8 -5 -6z"/>
<path d="M3090 8470 c-13 -8 -13 -10 2 -10 9 0 20 5 23 10 8 13 -5 13 -25 0z"/>
<path d="M2786 8145 c-21 -7 -45 -20 -52 -27 -11 -11 -9 -13 14 -14 15 -1 52
-9 82 -18 123 -38 185 -47 293 -44 l108 3 -5 29 c-3 16 -6 31 -6 35 0 3 -60 6
-132 7 -108 1 -145 5 -197 22 -35 12 -64 22 -65 22 0 -1 -19 -7 -40 -15z"/>
<path d="M3270 8120 l-45 -7 48 -1 c26 -1 47 3 47 8 0 6 -1 9 -2 8 -2 0 -23
-4 -48 -8z"/>
<path d="M2540 8013 c-19 -8 -42 -21 -50 -28 -8 -7 -37 -15 -64 -19 -78 -10
-189 -84 -222 -149 -25 -47 -44 -120 -38 -141 4 -10 2 -16 -3 -13 -6 4 -15
-17 -21 -46 -21 -100 -24 -136 -12 -154 10 -16 11 -16 7 4 -3 13 2 28 14 39
10 9 19 23 19 29 0 7 11 28 24 48 13 19 22 38 19 41 -3 2 12 21 32 42 33 32
39 35 61 25 21 -9 24 -8 24 10 0 15 5 19 16 15 9 -4 29 7 51 29 20 19 38 33
41 30 3 -2 11 3 17 12 13 17 65 23 97 11 24 -10 51 -142 46 -233 -2 -40 -2
-73 -1 -72 1 2 19 55 41 119 36 107 39 120 30 174 -5 33 -13 75 -19 94 -16 52
-61 150 -68 149 -3 0 -22 -7 -41 -16z m-389 -496 c-8 -8 -11 -3 -11 19 1 25 2
27 11 11 8 -14 8 -22 0 -30z"/>
<path d="M3243 7935 c-9 -25 2 -27 22 -5 17 18 17 20 1 20 -9 0 -19 -7 -23
-15z"/>
<path d="M3307 7943 c-2 -5 2 -19 9 -33 10 -18 14 -20 14 -8 0 9 -5 20 -10 23
-6 4 -8 11 -5 16 4 5 4 9 1 9 -3 0 -7 -3 -9 -7z"/>
<path d="M3250 7813 c0 -27 2 -29 30 -25 17 2 30 5 28 6 -2 0 -15 12 -30 25
l-28 24 0 -30z"/>
<path d="M3204 7628 c12 -41 27 -212 22 -240 -5 -25 -2 -28 20 -28 21 0 25 3
18 18 -4 9 -9 36 -12 60 -3 37 -2 42 16 42 15 0 26 -14 43 -55 12 -30 29 -55
37 -55 7 0 12 3 10 8 -33 64 -47 107 -39 115 11 11 2 127 -12 145 -5 7 -31 12
-59 12 -47 0 -50 -1 -44 -22z m92 -60 c-1 -60 -2 -63 -28 -66 -25 -3 -26 -2
-30 58 -1 34 -1 64 1 66 2 2 17 4 31 4 27 0 28 -1 26 -62z"/>
<path d="M3453 7636 c8 -20 -39 -234 -55 -253 -8 -10 -3 -13 21 -13 17 0 31 5
31 11 0 6 -6 9 -13 6 -10 -4 -10 6 2 44 10 33 20 49 32 49 13 0 18 -14 24 -65
5 -46 11 -65 21 -65 17 0 16 -5 4 60 -8 43 -7 56 5 70 8 8 21 44 29 77 17 73
13 78 -58 88 -44 7 -48 6 -43 -9z m87 -25 c0 -5 -5 -32 -12 -60 -10 -47 -14
-51 -40 -51 -32 0 -32 1 -16 69 10 47 14 51 40 51 15 0 28 -4 28 -9z"/>
<path d="M3091 7621 c-11 -7 -11 -12 2 -32 23 -38 71 -209 61 -218 -5 -5 -18
-11 -29 -15 -19 -5 -23 4 -49 92 -16 53 -30 109 -31 125 -2 28 -7 31 -37 21
-17 -5 -16 -7 2 -32 16 -23 48 -117 67 -199 6 -27 24 -34 63 -27 53 11 54 22
15 147 -20 63 -35 120 -33 127 4 16 -13 22 -31 11z"/>
<path d="M3613 7535 c-2 -87 -21 -161 -45 -176 -16 -10 0 -29 24 -29 14 0 18
5 14 15 -3 8 2 31 10 52 20 48 102 163 115 163 18 0 4 23 -19 31 -18 7 -22 5
-22 -11 0 -20 -40 -90 -51 -90 -10 0 3 94 14 101 13 9 2 25 -20 31 -16 4 -18
-5 -20 -87z"/>
<path d="M2873 7530 c-18 -11 -33 -24 -33 -30 0 -6 28 -58 62 -115 65 -112 79
-122 126 -89 29 20 27 67 -3 72 -16 3 -18 1 -7 -9 19 -20 15 -35 -14 -48 -15
-6 -28 -10 -29 -9 -2 2 -20 35 -41 73 -20 39 -46 82 -56 96 -18 27 -18 27 9
44 25 17 27 17 39 0 19 -26 37 -14 19 13 -20 27 -31 27 -72 2z"/>
<path d="M2132 7415 c0 -16 2 -22 5 -12 2 9 2 23 0 30 -3 6 -5 -1 -5 -18z"/>
<path d="M2564 7418 c-4 -13 -16 -43 -26 -68 -15 -34 -21 -41 -28 -30 -12 18
-12 -32 0 -70 l7 -25 7 30 c4 17 19 63 32 104 13 41 22 76 20 79 -2 2 -7 -7
-12 -20z"/>
<path d="M2480 7381 c0 -6 4 -13 10 -16 6 -3 7 1 4 9 -7 18 -14 21 -14 7z"/>
<path d="M2141 7354 c0 -11 3 -14 6 -6 3 7 2 16 -1 19 -3 4 -6 -2 -5 -13z"/>
<path d="M2173 7303 c5 -26 -5 -86 -30 -193 -35 -148 -36 -164 -37 -340 -1
-151 -4 -191 -17 -215 -9 -16 -31 -56 -49 -88 -18 -32 -30 -61 -27 -64 3 -3
13 12 22 33 9 22 29 56 45 76 17 20 30 47 31 60 0 21 1 22 8 3 7 -16 9 -14 15
16 3 20 4 44 0 53 -3 9 -1 22 5 29 8 10 7 19 -4 33 -17 22 -19 38 -5 29 6 -3
10 1 10 10 0 10 -5 13 -12 9 -8 -5 -9 2 -5 24 4 18 3 32 -1 32 -21 0 16 281
37 288 5 2 6 12 3 24 -3 15 -2 19 7 14 9 -6 10 0 6 21 -5 21 -4 24 4 13 8 -12
11 -5 11 27 0 33 3 41 15 37 11 -5 13 2 8 33 -3 21 -10 40 -15 41 -4 2 -8 10
-8 18 0 8 -5 14 -11 14 -8 0 -10 -13 -6 -37z"/>
<path d="M2151 7314 c0 -11 3 -14 6 -6 3 7 2 16 -1 19 -3 4 -6 -2 -5 -13z"/>
<path d="M2541 7144 c0 -11 3 -14 6 -6 3 7 2 16 -1 19 -3 4 -6 -2 -5 -13z"/>
<path d="M3505 7107 c-42 -20 -110 -90 -134 -140 -29 -60 -51 -153 -51 -212 1
-144 41 -318 70 -300 6 3 7 0 4 -8 -7 -20 54 -65 112 -83 91 -27 158 11 217
123 54 103 68 165 69 300 1 168 -20 228 -105 296 -30 25 -49 31 -95 34 -34 2
-69 -2 -87 -10z m135 -175 c38 -38 54 -101 47 -187 -10 -130 -69 -235 -132
-235 -36 0 -83 46 -96 93 -15 57 -6 211 16 265 36 88 111 117 165 64z m-35
-542 c3 -5 1 -10 -4 -10 -6 0 -11 5 -11 10 0 6 2 10 4 10 3 0 8 -4 11 -10z"/>
<path d="M2551 7094 c0 -11 3 -14 6 -6 3 7 2 16 -1 19 -3 4 -6 -2 -5 -13z"/>
<path d="M2993 7069 c-46 -9 -102 -35 -152 -73 -19 -14 -39 -22 -44 -19 -6 4
-8 0 -4 -8 39 -92 77 -172 77 -162 0 6 3 19 7 29 5 13 3 15 -8 9 -8 -5 -11 -5
-6 1 5 5 12 9 15 9 4 1 29 15 56 33 102 66 205 51 206 -28 0 -36 -27 -70 -55
-70 -13 0 -26 -4 -30 -10 -6 -10 -33 -3 -55 16 -13 11 -15 2 -12 -77 3 -76 6
-88 17 -79 13 11 38 10 125 -2 9 -1 17 -9 18 -18 1 -8 4 -32 8 -52 12 -75 -72
-116 -172 -84 -62 19 -111 58 -129 99 l-12 29 -16 -59 c-10 -32 -23 -79 -31
-104 -10 -34 -11 -46 -3 -45 7 0 43 -15 82 -34 59 -30 82 -36 153 -39 61 -2
95 1 128 14 56 21 110 83 122 142 19 87 -6 188 -55 220 -21 14 -22 18 -10 32
74 84 61 229 -26 292 -22 16 -56 31 -76 34 -20 4 -45 8 -56 9 -11 2 -39 0 -62
-5z m-103 -64 c0 -2 -10 -9 -22 -15 -22 -11 -22 -10 -4 4 21 17 26 19 26 11z
m180 -5 c0 -5 -4 -10 -10 -10 -5 0 -10 5 -10 10 0 6 5 10 10 10 6 0 10 -4 10
-10z m-220 -40 c0 -5 -2 -10 -4 -10 -3 0 -8 5 -11 10 -3 6 -1 10 4 10 6 0 11
-4 11 -10z m270 -184 c0 -3 -4 -8 -10 -11 -5 -3 -10 -1 -10 4 0 6 5 11 10 11
6 0 10 -2 10 -4z m-259 -233 c13 -16 12 -17 -3 -4 -10 7 -18 15 -18 17 0 8 8
3 21 -13z"/>
<path d="M2552 6810 c0 -14 2 -19 5 -12 2 6 2 18 0 25 -3 6 -5 1 -5 -13z"/>
<path d="M2493 6535 c-6 -20 -7 -35 -2 -35 5 0 9 -5 9 -11 0 -5 -4 -8 -9 -5
-24 15 -18 -177 7 -220 14 -24 15 -13 3 20 -6 13 -6 26 -1 28 10 4 17 184 7
194 -3 3 -3 19 0 35 8 40 -1 36 -14 -6z m4 -187 c-3 -7 -5 -2 -5 12 0 14 2 19
5 13 2 -7 2 -19 0 -25z"/>
<path d="M2526 6533 c-6 -14 -5 -15 5 -6 7 7 10 15 7 18 -3 3 -9 -2 -12 -12z"/>
<path d="M2097 6513 c-4 -3 -7 -11 -7 -17 0 -6 5 -5 12 2 6 6 9 14 7 17 -3 3
-9 2 -12 -2z"/>
<path d="M2127 6394 c3 -9 -1 -14 -12 -14 -22 0 -48 -27 -39 -41 4 -7 3 -9 -3
-6 -6 4 -13 -1 -16 -11 -35 -113 -44 -152 -36 -152 5 0 16 18 25 40 9 22 20
40 26 40 5 0 8 6 7 13 -3 22 23 77 37 77 8 0 14 9 14 20 0 11 5 20 10 20 15 0
12 17 -4 23 -10 4 -13 1 -9 -9z"/>
<path d="M1982 6314 c-7 -26 -11 -49 -8 -51 6 -6 28 76 24 88 -2 6 -9 -11 -16
-37z"/>
<path d="M1961 6245 c-1 -5 -8 -76 -16 -156 -8 -83 -15 -262 -16 -415 -1 -245
-6 -334 -23 -419 -3 -16 1 -11 9 13 22 68 34 242 29 432 -3 96 0 231 6 300 6
69 11 135 11 148 -1 13 3 21 7 18 4 -2 6 12 4 32 -4 39 -10 64 -11 47z"/>
<path d="M1980 6079 c0 -5 5 -7 10 -4 6 3 10 8 10 11 0 2 -4 4 -10 4 -5 0 -10
-5 -10 -11z"/>
<path d="M2506 6070 c-8 -31 -4 -70 6 -70 13 0 19 44 10 70 l-10 25 -6 -25z"/>
<path d="M1951 5724 c0 -11 3 -14 6 -6 3 7 2 16 -1 19 -3 4 -6 -2 -5 -13z"/>
<path d="M1967 5323 c-4 -3 -7 -13 -7 -22 0 -12 3 -11 13 4 10 12 16 14 21 7
4 -7 4 -16 1 -22 -3 -6 1 -7 10 -4 14 6 14 8 -1 25 -18 20 -27 23 -37 12z"/>
<path d="M1956 5254 c-10 -25 1 -29 14 -5 6 12 7 21 1 21 -5 0 -12 -7 -15 -16z"/>
<path d="M1892 5200 c0 -14 2 -19 5 -12 2 6 2 18 0 25 -3 6 -5 1 -5 -13z"/>
<path d="M1940 5209 c0 -5 5 -7 10 -4 6 3 10 8 10 11 0 2 -4 4 -10 4 -5 0 -10
-5 -10 -11z"/>
<path d="M1896 4972 c-5 -35 -18 -104 -31 -155 l-23 -92 21 -37 c11 -21 22
-36 25 -34 2 3 -4 18 -14 35 -18 30 -18 33 0 98 11 38 25 89 32 116 8 30 10
62 5 90 l-8 42 -7 -63z"/>
<path d="M4747 4742 c-20 -22 -22 -55 -4 -70 6 -5 31 -16 55 -23 53 -16 67
-31 52 -58 -15 -29 -52 -36 -90 -16 -35 18 -50 15 -26 -4 21 -18 89 -25 113
-12 49 26 32 85 -29 102 -53 15 -68 26 -68 50 0 28 43 45 76 30 29 -13 47 -6
24 9 -26 16 -86 11 -103 -8z"/>
<path d="M4970 4750 c0 -5 16 -10 35 -10 l35 0 0 -95 c0 -57 4 -95 10 -95 6 0
10 38 10 95 l0 95 35 0 c19 0 35 5 35 10 0 6 -33 10 -80 10 -47 0 -80 -4 -80
-10z"/>
<path d="M5240 4655 l0 -105 75 0 c43 0 75 4 75 10 0 6 -28 10 -65 10 l-65 0
0 40 0 40 62 0 c34 0 58 3 54 7 -4 4 -30 7 -59 8 l-52 0 -3 38 -3 37 65 0 c37
0 66 4 66 10 0 6 -32 10 -75 10 l-75 0 0 -105z"/>
<path d="M5509 4748 c-1 -31 0 -194 2 -198 1 -3 5 13 8 35 l6 40 54 5 c80 8
106 56 56 105 -19 20 -34 25 -75 25 -33 0 -50 -4 -51 -12z m119 -20 c36 -36
-5 -88 -70 -88 l-38 0 0 50 0 50 48 0 c26 0 53 -5 60 -12z"/>
<path d="M5770 4655 c0 -63 4 -105 10 -105 6 0 10 23 10 50 l0 51 62 -3 61 -3
1 -42 c1 -23 5 -45 9 -49 4 -4 7 41 7 101 0 60 -3 105 -7 101 -4 -4 -8 -26 -8
-49 l-1 -42 -49 0 c-72 -1 -75 2 -75 51 0 24 -4 44 -10 44 -6 0 -10 -42 -10
-105z"/>
<path d="M6060 4655 l0 -105 75 0 c43 0 75 4 75 10 0 6 -28 10 -65 10 l-65 0
0 40 0 40 55 0 c30 0 55 3 55 8 0 4 -25 7 -55 7 l-55 -1 0 38 0 38 65 0 c37 0
65 4 65 10 0 6 -32 10 -75 10 l-75 0 0 -105z"/>
<path d="M6320 4655 c0 -63 4 -105 10 -105 6 0 10 35 10 85 0 47 3 85 8 85 4
0 17 -15 30 -33 13 -19 22 -25 22 -16 0 21 -51 88 -67 89 -10 0 -13 -27 -13
-105z"/>
<path d="M1921 4520 c0 -8 4 -22 9 -30 12 -18 12 -2 0 25 -6 13 -9 15 -9 5z"/>
<path d="M5007 4440 c-30 -24 -51 -80 -42 -112 4 -13 19 -35 33 -50 21 -23 34
-28 71 -28 53 1 92 23 73 42 -9 9 -18 9 -37 0 -36 -17 -52 -15 -75 8 -26 26
-26 81 -2 103 20 19 59 22 82 7 9 -5 19 -5 27 2 19 15 16 23 -12 36 -39 18
-89 14 -118 -8z"/>
<path d="M5253 4383 c7 -117 19 -133 96 -133 65 0 81 26 81 127 0 76 -2 83
-20 83 -18 0 -20 -7 -20 -80 0 -75 -2 -81 -24 -91 -17 -8 -29 -8 -45 0 -22 12
-23 14 -25 106 -1 55 -3 60 -25 63 -23 4 -23 3 -18 -75z"/>
<path d="M5550 4356 c0 -99 1 -106 20 -106 16 0 20 7 20 35 0 28 4 35 19 35
11 0 28 -15 41 -35 15 -25 29 -35 47 -35 l25 0 -22 34 -21 35 20 20 c12 12 21
34 21 49 0 45 -31 65 -106 70 l-64 4 0 -106z m121 48 c18 -21 0 -48 -35 -52
-14 -2 -26 -8 -26 -13 0 -6 -4 -7 -10 -4 -5 3 -10 24 -10 46 0 38 1 39 34 39
18 0 39 -7 47 -16z"/>
<path d="M5829 4454 c-1 -5 -2 -53 -3 -106 -1 -95 0 -98 22 -98 19 0 22 5 22
35 0 28 4 35 19 35 11 0 28 -15 41 -35 15 -25 29 -35 46 -35 l25 0 -22 31
c-19 27 -20 34 -9 55 8 13 17 24 22 24 15 0 8 48 -11 71 -15 19 -30 24 -85 27
-36 2 -67 0 -67 -4z m121 -53 c13 -26 -11 -51 -51 -51 -27 0 -29 3 -29 35 0
33 2 35 35 35 24 0 37 -6 45 -19z"/>
<path d="M6095 4433 c10 -16 29 -44 42 -63 15 -23 23 -49 23 -77 0 -36 3 -43
20 -43 17 0 20 7 20 43 0 28 8 54 23 77 64 95 62 90 36 90 -17 0 -31 -11 -49
-40 -14 -22 -28 -40 -32 -40 -4 0 -17 18 -28 40 -16 31 -26 40 -46 40 -26 0
-26 0 -9 -27z"/>
<path d="M2525 3988 c4 -13 15 -42 26 -65 10 -26 14 -43 7 -43 -6 0 -3 -11 6
-24 9 -14 13 -31 11 -38 -3 -8 1 -36 9 -62 8 -27 13 -53 10 -58 -3 -4 2 -11
10 -14 9 -3 16 -11 16 -18 0 -6 12 -33 26 -60 14 -26 23 -50 20 -53 -3 -3 -19
23 -36 58 -16 35 -30 55 -30 45 0 -10 13 -40 29 -66 16 -27 28 -50 25 -52 -2
-3 3 -21 11 -41 17 -42 20 -71 5 -62 -5 3 -10 16 -10 28 -1 12 -8 33 -16 47
-11 18 -13 19 -9 5 24 -77 18 -87 -36 -59 -36 18 -35 19 -43 -23 -7 -28 -4
-34 21 -47 16 -8 49 -17 73 -21 25 -4 67 -11 94 -16 103 -19 368 -10 428 16
15 6 16 2 11 -28 l-5 -34 68 -21 c107 -32 178 -49 324 -76 208 -38 271 -46
374 -46 52 0 96 -4 98 -10 2 -5 13 -7 26 -4 29 8 30 56 2 84 -11 11 -20 28
-21 38 0 12 -3 10 -10 -7 -18 -44 -19 -15 -3 55 8 38 19 94 24 124 5 30 12 71
16 90 4 19 4 32 0 29 -6 -6 -20 -66 -51 -219 -15 -76 -24 -100 -36 -100 -12 0
-12 1 6 43 8 20 15 48 15 63 0 27 9 64 55 219 31 104 35 126 24 119 -5 -3 -9
-13 -9 -23 0 -9 -18 -71 -41 -136 -23 -66 -45 -146 -49 -178 -8 -54 -35 -115
-47 -104 -2 3 3 19 11 36 9 16 16 44 16 61 0 17 20 90 45 163 24 73 51 164 60
202 8 39 18 78 21 89 4 11 2 16 -4 12 -6 -3 -16 -32 -22 -64 -7 -31 -31 -111
-55 -177 -23 -66 -45 -139 -49 -163 -6 -44 -63 -168 -72 -159 -3 2 6 29 19 59
14 30 32 86 42 123 9 38 30 102 46 144 28 72 75 268 67 277 -3 2 -15 -29 -27
-69 -89 -284 -181 -527 -200 -527 -5 0 5 33 22 73 16 39 47 122 68 182 l37
110 -33 -38 c-18 -21 -36 -49 -39 -62 -12 -49 -108 -265 -118 -265 -11 0 -3
31 23 81 16 33 59 139 59 147 0 2 -14 -7 -31 -21 -20 -15 -43 -53 -65 -103
-35 -81 -49 -102 -60 -92 -3 4 8 32 25 64 17 32 29 60 26 62 -11 11 -64 -35
-84 -74 -13 -24 -28 -44 -32 -44 -13 0 -11 7 8 36 l17 26 -50 -24 c-36 -18
-57 -23 -79 -17 -16 4 -64 15 -105 24 -41 10 -103 26 -136 37 l-62 20 5 39 c3
21 3 46 -1 55 -6 15 -8 15 -24 2 -23 -20 -78 -38 -154 -48 -58 -9 -66 -7 -101
16 -34 22 -37 23 -28 5 13 -24 14 -31 2 -31 -9 0 -21 26 -25 54 -1 11 -36 65
-36 56 0 -3 7 -27 15 -54 8 -27 13 -51 10 -54 -4 -5 -9 6 -42 91 -10 26 -31
60 -47 75 -28 27 -28 26 10 -48 54 -107 55 -110 45 -110 -5 0 -37 56 -71 124
-35 72 -79 143 -102 168 l-40 43 31 -42 c18 -23 39 -64 48 -90 9 -26 21 -55
28 -63 22 -26 76 -140 66 -140 -5 0 -17 17 -26 38 -10 20 -31 58 -47 84 -16
26 -34 63 -39 83 -6 22 -14 33 -21 29 -7 -5 -8 -2 -3 5 4 8 -3 23 -18 39 -30
33 -57 84 -57 111 0 11 -7 26 -15 34 -8 8 -11 18 -7 22 4 5 2 5 -5 1 -7 -4
-11 0 -11 11 1 20 -40 133 -48 133 -3 0 -2 -10 1 -22z m75 -201 c0 -13 8 -38
19 -57 10 -19 35 -66 56 -105 20 -38 42 -77 49 -85 24 -27 69 -111 63 -116 -3
-3 -13 7 -23 23 -44 72 -80 123 -86 123 -5 0 -8 7 -8 16 0 26 -52 114 -63 107
-6 -3 -7 -1 -4 4 4 6 3 24 -2 39 -18 56 -22 86 -11 79 5 -3 10 -16 10 -28z
m138 -327 c12 -22 19 -40 14 -40 -5 0 -19 18 -31 41 -27 47 -40 46 -16 -1 9
-18 14 -34 11 -37 -3 -4 -13 11 -21 33 -9 21 -20 47 -26 57 -5 10 -7 23 -3 29
8 13 36 -19 72 -82z"/>
<path d="M4080 3968 c0 -13 -3 -34 -6 -48 -4 -18 -3 -21 4 -10 16 25 25 80 13
80 -6 0 -11 -10 -11 -22z"/>
<path d="M4088 3890 c-4 -14 -8 -36 -7 -50 l0 -25 10 25 c5 13 9 36 7 50 l-3
25 -7 -25z"/>
<path d="M3205 3550 c-8 -12 5 -60 16 -60 5 0 9 16 9 35 0 33 -12 46 -25 25z"/>
<path d="M2763 2283 c9 -2 23 -2 30 0 6 3 -1 5 -18 5 -16 0 -22 -2 -12 -5z"/>
<path d="M2652 2270 c-17 -7 -21 -15 -18 -32 3 -13 17 -97 31 -188 48 -311 94
-572 100 -578 7 -8 94 9 100 19 4 5 1 9 -4 9 -7 0 -11 28 -11 71 0 58 -3 70
-14 66 -11 -4 -16 3 -18 26 -2 21 -8 31 -17 29 -9 -2 -12 4 -8 18 3 13 0 23
-9 27 -8 3 -13 12 -10 20 4 8 3 20 -1 26 -17 26 -24 220 -10 229 6 4 8 10 4
15 -5 4 -12 1 -17 -7 -14 -23 -24 -2 -12 25 12 25 4 33 -14 15 -6 -6 -10 21
-9 80 0 50 -4 90 -9 90 -4 0 -6 7 -2 15 3 8 0 16 -7 16 -7 1 2 5 18 9 l30 8
-35 0 c-19 0 -45 -3 -58 -8z"/>
<path d="M3050 2272 c8 -4 16 -13 18 -20 1 -8 -2 -11 -9 -6 -7 4 -9 0 -5 -13
4 -12 0 -25 -9 -33 -12 -10 -13 -16 -4 -26 9 -11 8 -14 -5 -14 -9 0 -16 -7
-16 -15 0 -8 -5 -15 -11 -15 -6 0 -8 -9 -4 -20 4 -12 2 -27 -4 -34 -14 -16
-18 -106 -7 -125 5 -7 5 -16 0 -20 -5 -3 -9 -22 -9 -41 1 -19 -2 -44 -6 -54
-3 -11 0 -31 7 -45 9 -16 10 -29 4 -36 -6 -7 -7 -15 -3 -19 4 -4 2 -11 -5 -15
-9 -5 -10 -15 -4 -32 7 -21 8 -68 3 -161 0 -16 -8 -28 -18 -31 -10 -3 6 -5 35
-6 l52 -1 0 38 c0 20 4 64 9 97 5 33 13 101 16 150 20 283 36 448 45 465 9 17
7 22 -15 30 -30 11 -80 13 -55 2z"/>
<path d="M3345 2216 c-23 -17 -22 -70 2 -159 13 -48 14 -69 5 -126 -25 -150
-37 -621 -15 -621 20 0 43 12 43 22 0 5 -4 6 -10 3 -15 -9 -12 1 4 18 8 8 15
36 17 63 1 27 6 59 11 72 4 13 10 47 12 75 2 29 9 70 14 92 6 22 10 64 8 93
-2 28 0 54 5 57 4 3 6 12 2 20 -3 8 0 15 5 15 12 0 11 58 -1 76 -4 7 0 17 8
24 13 11 12 16 -5 40 -11 15 -17 30 -13 34 3 3 3 6 -1 6 -3 0 -11 -10 -17 -22
l-10 -23 5 23 c2 12 -2 25 -9 30 -7 4 -15 23 -19 42 -15 79 -19 90 -27 84 -5
-3 -9 0 -9 5 0 6 7 11 15 11 9 0 15 9 15 24 0 18 7 26 23 29 17 3 15 5 -9 6
-16 0 -39 -5 -49 -13z"/>
<path d="M3750 2180 c8 -5 20 -10 25 -10 6 0 3 5 -5 10 -8 5 -19 10 -25 10 -5
0 -3 -5 5 -10z"/>
<path d="M3790 2165 c0 -3 14 -12 30 -20 17 -9 28 -20 25 -26 -4 -5 -11 -6
-17 -3 -7 5 -7 1 0 -12 8 -14 5 -22 -14 -37 -25 -19 -32 -47 -13 -47 6 0 8 -9
4 -22 l-7 -23 16 22 c22 30 44 93 42 122 -1 16 -11 27 -33 36 -18 8 -33 12
-33 10z m40 -114 c0 -6 -4 -13 -10 -16 -5 -3 -10 1 -10 9 0 9 5 16 10 16 6 0
10 -4 10 -9z"/>
<path d="M3775 2110 c3 -5 11 -10 16 -10 6 0 7 5 4 10 -3 6 -11 10 -16 10 -6
0 -7 -4 -4 -10z"/>
<path d="M3771 1965 c0 -5 3 -16 8 -23 7 -11 9 -10 14 3 4 9 3 14 -2 10 -5 -3
-12 1 -14 7 -3 7 -6 9 -6 3z"/>
<path d="M3806 1935 c-3 -9 -6 -22 -5 -28 0 -7 5 -1 10 12 5 13 8 26 5 28 -2
2 -6 -3 -10 -12z"/>
<path d="M3757 1893 c-5 -26 -4 -26 9 -8 16 22 18 35 5 35 -5 0 -11 -12 -14
-27z"/>
<path d="M3725 1841 c3 -5 -2 -17 -11 -26 -9 -9 -14 -19 -11 -22 8 -7 31 16
40 40 4 11 2 17 -9 17 -8 0 -13 -4 -9 -9z"/>
<path d="M3695 1770 c3 -5 -2 -21 -11 -35 -9 -14 -14 -28 -10 -32 3 -3 6 0 7
8 0 8 4 6 9 -6 7 -17 9 -15 9 13 1 17 6 32 11 32 16 0 12 17 -6 24 -8 3 -12 2
-9 -4z"/>
<path d="M3716 1728 c-3 -10 -8 -25 -11 -34 -3 -8 -9 -12 -15 -9 -5 3 -11 -4
-11 -17 -1 -17 -3 -18 -6 -5 -7 28 -22 19 -29 -18 -3 -19 -10 -38 -15 -41 -14
-8 -10 -22 5 -20 8 0 15 -3 15 -9 1 -5 -5 -11 -12 -11 -6 -1 -17 -2 -23 -3 -7
0 -14 -12 -17 -26 -2 -14 -2 -23 1 -20 4 3 11 -13 17 -36 5 -24 15 -44 21 -46
10 -3 25 35 29 77 1 8 12 35 23 60 12 25 22 54 22 66 0 12 5 35 11 52 6 17 9
37 6 44 -3 9 -7 7 -11 -4z"/>
<path d="M3726 1644 c-4 -14 -5 -28 -3 -31 3 -2 8 8 11 23 4 14 5 28 3 31 -3
2 -8 -8 -11 -23z"/>
<path d="M3701 1559 c-7 -22 -10 -43 -7 -46 2 -3 10 14 16 37 15 55 7 63 -9 9z"/>
<path d="M3681 1484 c0 -11 3 -14 6 -6 3 7 2 16 -1 19 -3 4 -6 -2 -5 -13z"/>
<path d="M2900 1465 c0 -8 9 -15 20 -15 11 0 20 7 20 15 0 8 -9 15 -20 15 -11
0 -20 -7 -20 -15z"/>
<path d="M3656 1404 c-4 -14 -5 -28 -3 -31 3 -2 8 8 11 23 4 14 5 28 3 31 -3
2 -8 -8 -11 -23z"/>
<path d="M2904 1405 c-4 -9 -2 -21 4 -27 15 -15 44 -1 40 19 -4 23 -36 29 -44
8z"/>
<path d="M3611 1374 c0 -11 3 -14 6 -6 3 7 2 16 -1 19 -3 4 -6 -2 -5 -13z"/>
<path d="M2907 1334 c-12 -12 -8 -64 6 -64 40 1 58 13 55 39 -2 19 -9 27 -28
29 -14 2 -29 0 -33 -4z"/>
<path d="M3619 1291 c-6 -22 -15 -38 -19 -36 -4 2 -7 -2 -7 -10 0 -8 4 -15 8
-15 8 0 41 91 35 98 -3 2 -10 -14 -17 -37z"/>
<path d="M3390 1310 c0 -5 10 -10 23 -10 18 0 19 2 7 10 -19 13 -30 13 -30 0z"/>
<path d="M3491 1291 c-11 -7 -9 -11 9 -21 12 -6 24 -9 28 -6 3 3 0 6 -6 6 -6
0 -12 7 -14 15 -2 10 -8 12 -17 6z"/>
<path d="M3120 1270 c-7 -13 -7 -26 -2 -36 8 -14 12 -11 26 16 20 40 20 40 1
40 -8 0 -19 -9 -25 -20z"/>
<path d="M3365 1271 c-3 -6 4 -15 16 -22 17 -9 23 -8 30 2 4 7 5 17 3 21 -7
11 -42 10 -49 -1z"/>
<path d="M3550 1250 c8 -5 20 -10 25 -10 6 0 3 5 -5 10 -8 5 -19 10 -25 10 -5
0 -3 -5 5 -10z"/>
<path d="M2907 1233 c-4 -3 -7 -21 -7 -40 0 -32 1 -33 39 -33 46 0 50 4 44 48
-5 28 -9 32 -37 32 -18 0 -36 -3 -39 -7z"/>
<path d="M3346 1204 c-20 -20 -12 -34 20 -34 28 0 44 28 23 41 -19 12 -25 11
-43 -7z"/>
<path d="M3576 1143 c-6 -14 -5 -15 5 -6 7 7 10 15 7 18 -3 3 -9 -2 -12 -12z"/>
<path d="M2907 1134 c-3 -3 -2 -17 4 -31 13 -34 11 -43 -5 -37 -8 3 -24 -4
-35 -15 -40 -40 -17 -101 31 -85 13 4 55 10 93 13 62 5 70 8 73 28 5 32 -25
71 -56 75 -21 2 -28 9 -30 31 -3 23 -8 27 -36 27 -18 0 -35 -3 -39 -6z"/>
<path d="M3315 1125 c-3 -8 -7 -22 -10 -30 -3 -11 4 -15 30 -15 25 0 35 5 40
20 3 11 3 24 0 30 -10 16 -55 12 -60 -5z"/>
<path d="M3540 1048 c0 -9 7 -19 16 -22 15 -6 15 -4 3 11 -7 10 -15 20 -16 22
-2 2 -3 -3 -3 -11z"/>
<path d="M3297 1033 c-3 -4 -8 -23 -12 -41 -7 -32 -6 -33 22 -26 36 8 42 14
45 44 2 20 -2 26 -24 28 -14 2 -28 0 -31 -5z"/>
<path d="M3167 990 c3 -11 15 -26 26 -31 19 -11 19 -10 -2 20 -26 36 -31 39
-24 11z"/>
<path d="M3537 999 c7 -7 15 -10 18 -7 3 3 -2 9 -12 12 -14 6 -15 5 -6 -5z"/>
<path d="M2759 983 c-13 -16 -12 -17 4 -4 9 7 17 15 17 17 0 8 -8 3 -21 -13z"/>
<path d="M2765 940 c-3 -5 -1 -10 4 -10 6 0 11 5 11 10 0 6 -2 10 -4 10 -3 0
-8 -4 -11 -10z"/>
<path d="M3276 914 c-3 -8 -6 -24 -6 -34 0 -13 -5 -17 -19 -13 -22 6 -45 -24
-57 -71 -6 -27 -5 -29 17 -23 13 3 53 1 90 -5 55 -10 70 -9 84 2 26 21 15 61
-22 79 -22 11 -31 21 -27 31 17 42 16 46 -19 48 -24 2 -37 -2 -41 -14z"/>
<path d="M3633 844 c-39 -14 -59 -36 -48 -54 9 -14 83 -22 102 -11 14 8 10 9
-17 5 -22 -4 -42 0 -55 9 -19 14 -18 16 19 31 21 9 52 16 68 16 17 0 27 4 23
10 -8 14 -42 11 -92 -6z"/>
<path d="M2770 715 c0 -14 2 -25 4 -25 2 0 6 11 8 25 3 14 1 25 -3 25 -5 0 -9
-11 -9 -25z"/>
<path d="M3118 713 c20 -8 14 -20 -10 -19 -17 1 -23 -5 -23 -19 0 -11 -9 -25
-20 -31 -12 -6 -19 -19 -18 -31 2 -14 -5 -23 -20 -27 -35 -9 -38 -7 -27 13 14
26 13 28 -10 34 -11 3 -20 1 -20 -4 0 -5 -3 -8 -7 -8 -22 4 -43 -2 -39 -10 4
-5 -2 -7 -13 -4 -22 6 -81 -22 -81 -38 0 -7 -9 -9 -21 -6 -16 4 -18 3 -9 -8 9
-11 3 -16 -32 -27 l-43 -13 60 -5 c51 -4 56 -6 32 -13 -16 -4 -25 -12 -21 -18
8 -14 71 -41 104 -46 14 -3 26 -7 28 -11 1 -4 25 -7 52 -6 28 0 50 -3 50 -8 0
-5 5 -6 10 -3 6 3 10 0 10 -9 0 -21 67 -43 220 -71 74 -14 139 -25 143 -25 5
0 5 -5 2 -10 -4 -6 -30 -8 -63 -5 -40 4 -51 3 -37 -4 19 -9 19 -10 -2 -10 -13
-1 -23 4 -23 9 0 6 -4 10 -10 10 -21 0 -9 -18 28 -42 43 -30 154 -47 317 -49
149 -2 169 0 191 16 18 14 17 14 -9 5 -35 -12 -68 -14 -49 -2 7 5 -17 8 -53 8
-39 0 -70 5 -78 13 -10 10 -6 11 18 6 28 -5 28 -5 6 5 -13 6 -31 8 -40 5 -22
-6 -92 19 -106 39 -7 9 -20 16 -29 16 -9 0 -19 7 -22 15 -4 8 -15 15 -25 15
-10 0 -19 6 -19 13 0 8 -4 7 -10 -3 -5 -8 -10 -11 -10 -6 0 5 -9 1 -20 -9 -13
-11 -20 -14 -20 -6 0 8 -7 10 -20 6 -10 -3 -28 -2 -38 4 -16 9 -75 18 -126 20
-12 1 -16 6 -13 15 4 10 -2 18 -16 22 -12 4 -25 12 -29 18 -5 7 -8 4 -8 -6 0
-10 5 -18 10 -18 6 0 10 -4 10 -10 0 -5 -7 -7 -15 -4 -8 4 -15 12 -15 20 0 17
-17 18 -23 2 -3 -7 -4 4 -2 25 2 33 0 38 -16 34 -15 -4 -19 0 -19 19 0 18 4
22 17 17 15 -6 15 -5 3 8 -7 8 -21 15 -29 15 -9 0 -34 2 -56 3 -35 3 -31 5 38
18 71 14 77 17 77 40 0 28 14 57 46 96 30 36 30 47 2 46 -13 0 -17 -3 -10 -6z
m-3 -33 c-3 -5 -11 -10 -16 -10 -6 0 -7 5 -4 10 3 6 11 10 16 10 6 0 7 -4 4
-10z m-212 -167 c-7 -2 -21 -2 -30 0 -10 3 -4 5 12 5 17 0 24 -2 18 -5z"/>
<path d="M2980 690 c0 -5 5 -10 11 -10 5 0 7 5 4 10 -3 6 -8 10 -11 10 -2 0
-4 -4 -4 -10z"/>
<path d="M3681 523 c7 -12 15 -20 18 -17 3 2 -3 12 -13 22 -17 16 -18 16 -5
-5z"/>
<path d="M3513 492 c27 -17 35 -32 18 -32 -6 0 -13 5 -16 10 -3 6 -11 10 -17
10 -6 0 -3 -9 7 -20 19 -21 7 -28 -13 -8 -6 6 -14 9 -18 6 -3 -4 7 -15 23 -24
15 -10 32 -24 36 -31 5 -8 13 -11 18 -7 6 3 3 11 -8 19 -14 11 -15 15 -4 28
13 16 45 12 35 -4 -3 -5 0 -9 5 -9 22 0 10 19 -31 49 -23 17 -47 31 -52 31 -6
0 1 -8 17 -18z"/>
<path d="M3080 450 c0 -5 5 -10 10 -10 6 0 10 5 10 10 0 6 -4 10 -10 10 -5 0
-10 -4 -10 -10z"/>
<path d="M3269 369 c34 -13 104 -29 96 -21 -6 7 -94 31 -110 31 -5 0 1 -5 14
-10z"/>
<path d="M3688 233 c7 -3 16 -2 19 1 4 3 -2 6 -13 5 -11 0 -14 -3 -6 -6z"/>
</g>
</svg>
